<?xml version="1.0" encoding="UTF-8" standalone="no"?>
<!-- Created with Inkscape (http://www.inkscape.org/) -->

<svg
   sodipodi:docname="LogoBlackText.svg"
   inkscape:version="1.2.2 (732a01da63, 2022-12-09)"
   xml:space="preserve"
   id="svg5"
   version="1.1"
   viewBox="-101 -249 329.79898 232.85051"
   height="232.85051mm"
   width="329.79898mm"
   xmlns:inkscape="http://www.inkscape.org/namespaces/inkscape"
   xmlns:sodipodi="http://sodipodi.sourceforge.net/DTD/sodipodi-0.dtd"
   xmlns="http://www.w3.org/2000/svg"
   xmlns:svg="http://www.w3.org/2000/svg"><sodipodi:namedview
     id="namedview7"
     pagecolor="#ffffff"
     bordercolor="#000000"
     borderopacity="0.25"
     inkscape:showpageshadow="2"
     inkscape:pageopacity="0.0"
     inkscape:pagecheckerboard="0"
     inkscape:deskcolor="#d1d1d1"
     inkscape:document-units="mm"
     showgrid="false"
     inkscape:zoom="1.28"
     inkscape:cx="781.25"
     inkscape:cy="356.25"
     inkscape:window-width="2560"
     inkscape:window-height="1369"
     inkscape:window-x="-8"
     inkscape:window-y="-8"
     inkscape:window-maximized="1"
     inkscape:current-layer="layer2"
     showguides="true"><sodipodi:guide
       position="52.608289,277.81259"
       orientation="0,-1"
       id="guide338"
       inkscape:locked="false" /><sodipodi:guide
       position="282.60895,666.32344"
       orientation="-1,0"
       id="guide340"
       inkscape:locked="false"
       inkscape:label=""
       inkscape:color="rgb(0,134,229)" /><sodipodi:guide
       position="-47.391038,451.94064"
       orientation="-1,0"
       id="guide3033"
       inkscape:locked="false"
       inkscape:label=""
       inkscape:color="rgb(0,134,229)" /><sodipodi:guide
       position="117.60896,671.74228"
       orientation="-1,0"
       id="guide3035"
       inkscape:locked="false"
       inkscape:label=""
       inkscape:color="rgb(0,134,229)" /></sodipodi:namedview><defs
     id="defs2"><rect
       x="398.25519"
       y="412.73721"
       width="941.33044"
       height="264.29663"
       id="rect3027" /><rect
       x="63.35878"
       y="105.89968"
       width="1435.5289"
       height="249.81462"
       id="rect2917" /><inkscape:path-effect
       effect="perspective-envelope"
       up_left_point="-12.569769,37.420416"
       up_right_point="319.11155,37.420416"
       down_left_point="-12.569769,91.064183"
       down_right_point="319.11155,91.064183"
       id="path-effect2797"
       is_visible="true"
       lpeversion="1"
       deform_type="perspective"
       horizontal_mirror="true"
       vertical_mirror="false"
       overflow_perspective="false" /><inkscape:path-effect
       effect="envelope"
       id="path-effect1628"
       is_visible="true"
       lpeversion="1"
       yy="false"
       xx="true"
       bendpath1="m 325.64086,836.67282 c 466.59227,226.66138 1373.86604,92.0827 1501.21204,18.10251"
       bendpath2="M 1826.8529,927.18537 V 1066.2166"
       bendpath3="M 331.07161,1066.2166 H 1826.8529"
       bendpath4="M 331.07161,927.18537 V 1066.2166"
       bendpath1-nodetypes="cc" /><rect
       x="318.60416"
       y="887.02295"
       width="1522.421"
       height="398.25519"
       id="rect452" /></defs><g
     inkscape:groupmode="layer"
     id="layer10"
     inkscape:label="Text 2"
     transform="translate(-95.705647,-71.606948)"
     style="display:inline"><g
       aria-label="STUDIO"
       transform="matrix(0.26458333,0,0,0.26458333,13.473698,-76.517047)"
       id="text3025"
       style="font-size:85.3333px;font-family:Righteous;-inkscape-font-specification:Righteous;white-space:pre;shape-inside:url(#rect3027);fill:#000000;fill-opacity:1"><path
         d="m 400.29753,450.06667 c 0,-2.58457 0.47222,-5.00942 1.41666,-7.27455 0.94445,-2.26513 2.22222,-4.23987 3.83333,-5.9242 1.63889,-1.71337 3.54167,-3.06373 5.70833,-4.0511 2.16667,-0.98736 4.48611,-1.48104 6.95833,-1.48104 h 27.41666 v 12.50177 h -27.41666 c -0.83333,0 -1.61111,0.15972 -2.33333,0.47917 -0.72222,0.31944 -1.36111,0.76956 -1.91666,1.35036 -0.52778,0.55177 -0.94445,1.20517 -1.25,1.96021 -0.30556,0.75505 -0.45834,1.56818 -0.45834,2.43938 0,0.87121 0.15278,1.69885 0.45834,2.48293 0.30555,0.75505 0.72222,1.42297 1.25,2.00377 0.55555,0.55177 1.19444,0.98737 1.91666,1.30681 0.72222,0.31944 1.5,0.47916 2.33333,0.47916 h 11.95833 c 2.47222,0 4.79166,0.49368 6.95833,1.48105 2.19445,0.95833 4.09722,2.29417 5.70833,4.00754 1.63889,1.68433 2.91667,3.67358 3.83334,5.96775 0.94444,2.26513 1.41666,4.68998 1.41666,7.27455 0,2.58457 -0.47222,5.00943 -1.41666,7.27456 -0.91667,2.26513 -2.19445,4.25438 -3.83334,5.96775 -1.61111,1.68433 -3.51388,3.02018 -5.70833,4.00755 -2.16667,0.98736 -4.5243,1.32818 -6.95833,1.76105 l -26.54165,4.72015 V 486.2995 l 26.54165,-5.00016 c 0.81893,-0.15428 1.61111,-0.15972 2.33334,-0.47916 0.72222,-0.31944 1.34722,-0.75504 1.87499,-1.3068 0.55556,-0.58081 0.98612,-1.24873 1.29167,-2.00378 0.30555,-0.75504 0.45833,-1.56816 0.45833,-2.43937 0,-0.87121 -0.15278,-1.68433 -0.45833,-2.43937 -0.30555,-0.75504 -0.73611,-1.40844 -1.29167,-1.96021 -0.52777,-0.5808 -1.15277,-1.03092 -1.87499,-1.35037 -0.72223,-0.31944 -1.50001,-0.47916 -2.33334,-0.47916 h -11.95833 c -2.47222,0 -4.79166,-0.49368 -6.95833,-1.48104 -2.16666,-0.98737 -4.06944,-2.32322 -5.70833,-4.00755 -1.61111,-1.71337 -2.88888,-3.70262 -3.83333,-5.96775 -0.94444,-2.29417 -1.41666,-4.73354 -1.41666,-7.31811 z"
         id="path3037"
         style="fill:#000000;fill-opacity:1;stroke-width:1.02247"
         sodipodi:nodetypes="sssssccsssssccssscccscscsccsssssscssssccs" /><path
         d="m 480.17249,487.92565 -11.91666,1.16003 V 442.81375 H 450.2975 v -11.47797 h 47.79165 v 11.47797 h -17.91666 z"
         id="path3039"
         style="fill:#000000;fill-opacity:1;stroke-width:0.97971"
         sodipodi:nodetypes="ccccccccc" /><path
         d="m 551.54746,463.67831 q 0,4.4701 -1.875,8.41432 -1.875,3.90664 -5.125,6.83663 -3.25,2.89242 -7.625,4.5828 -4.33333,1.69037 -9.29166,1.69037 -4.95833,0 -9.33333,-1.69037 -4.33333,-1.69038 -7.58333,-4.5828 -3.20833,-2.92999 -5.08333,-6.83663 -1.875,-3.94422 -1.875,-8.41432 v -32.34253 h 11.91666 v 32.34253 q 0,2.21627 0.91667,4.1696 0.95833,1.95332 2.58333,3.41831 1.625,1.46499 3.79167,2.32897 2.20833,0.8264 4.66666,0.8264 2.45833,0 4.625,-0.8264 2.20833,-0.86398 3.83333,-2.32897 1.625,-1.46499 2.54167,-3.41831 0.95833,-1.95333 0.95833,-4.1696 v -32.34253 h 11.95833 z"
         id="path3041"
         style="fill:#000000;fill-opacity:1;stroke-width:0.949492" /><path
         d="m 609.79744,458.33871 q 0,3.72844 -1.08333,7.19325 -1.04167,3.42715 -3,6.44004 -1.95833,2.97521 -4.66666,5.46084 -2.70834,2.44796 -6.04167,4.21803 -3.33333,1.77006 -7.16666,2.74926 -3.79167,0.94152 -7.91666,0.94152 h -18 v -54.00587 h 18 q 4.12499,0 7.91666,0.97918 3.83333,0.94154 7.16666,2.7116 3.33333,1.77007 6.04167,4.25568 2.70833,2.44798 4.66666,5.46085 1.95833,2.97523 3,6.44004 1.08333,3.42715 1.08333,7.15558 z m -11.95833,0 q 0,-3.35183 -1.41666,-6.28939 -1.375,-2.93755 -3.83333,-5.12189 -2.41667,-2.222 -5.70833,-3.50247 -3.25,-1.28048 -6.95833,-1.28048 h -5.95834 v 32.38846 h 5.95834 q 3.70833,0 6.95833,-1.24281 3.29166,-1.28047 5.70833,-3.46481 2.45833,-2.222 3.83333,-5.15956 1.41666,-2.97521 1.41666,-6.32705 z"
         id="path3043"
         style="fill:#000000;fill-opacity:1;stroke-width:0.950718" /><path
         d="M 629.67243,489.00568 H 617.7141 v -57.6699 h 11.95833 z"
         id="path3045"
         style="fill:#000000;fill-opacity:1;stroke-width:0.982439" /><path
         d="m 700.18432,462.58036 q 0,4.33804 -1.1573,8.37837 -1.11443,3.99781 -3.17184,7.52778 -2.05741,3.48745 -4.97208,6.37947 -2.91466,2.89202 -6.42942,4.97599 -3.51474,2.04142 -7.5867,3.1472 -4.07197,1.14831 -8.44396,1.14831 -4.37201,0 -8.44397,-1.14831 -4.0291,-1.10578 -7.58671,-3.1472 -3.51475,-2.08397 -6.42942,-4.97599 -2.91466,-2.89202 -5.01494,-6.37947 -2.05741,-3.52997 -3.21471,-7.52778 -1.11443,-4.04033 -1.11443,-8.37837 0,-4.33803 1.11443,-8.37837 1.1573,-4.04033 3.21471,-7.52776 2.10028,-3.48745 5.01494,-6.37947 2.91467,-2.89202 6.42942,-4.93346 3.55761,-2.04143 7.58671,-3.1472 4.07196,-1.1483 8.44397,-1.1483 4.37199,0 8.44396,1.1483 4.07196,1.10577 7.5867,3.1472 3.51476,2.04144 6.42942,4.93346 2.91467,2.89202 4.97208,6.37947 2.05741,3.48743 3.17184,7.52776 1.1573,4.04034 1.1573,8.37837 z m -12.21588,0 q 0,-3.99779 -1.54306,-7.52776 -1.54306,-3.57251 -4.20055,-6.16683 -2.61464,-2.63685 -6.21511,-4.16792 -3.55761,-1.53107 -7.5867,-1.53107 -4.07197,0 -7.62958,1.53107 -3.55761,1.53107 -6.2151,4.16792 -2.65749,2.59432 -4.20055,6.16683 -1.54306,3.52997 -1.54306,7.52776 0,3.99781 1.54306,7.52778 1.54306,3.48745 4.20055,6.12429 2.65749,2.63685 6.2151,4.16792 3.55761,1.53108 7.62958,1.53108 4.02909,0 7.5867,-1.53108 3.60047,-1.53107 6.21511,-4.16792 2.65749,-2.63684 4.20055,-6.12429 1.54306,-3.52997 1.54306,-7.52778 z"
         id="path3047"
         style="fill:#000000;fill-opacity:1;stroke-width:1.0247" /></g><g
       inkscape:groupmode="layer"
       id="layer12"
       inkscape:label="Text 1"
       style="display:inline" /><g
       inkscape:groupmode="layer"
       id="layer8"
       inkscape:label="Text"
       style="display:inline"
       transform="translate(26.821884,31.850988)"><g
         aria-label="NOOBSBUSTERS"
         transform="matrix(0.26458333,0,0,0.26458333,-51.629258,-65.609227)"
         id="text2915"
         style="font-size:160px;font-family:Righteous;-inkscape-font-specification:Righteous;white-space:pre;shape-inside:url(#rect2917);fill:#000000;fill-opacity:1"><path
           d="M 163.35937,252.80562 H 139.375 l -43.203125,-81.7194 v 81.7194 H 73.75 V 126.86826 l 23.984375,1.80006 43.203125,81.80597 v -78.56587 l 22.42187,1.56005 z"
           id="path2989"
           style="fill:#000000;fill-opacity:1;stroke-width:1.05264"
           sodipodi:nodetypes="ccccccccccc" /><path
           d="m 293.90625,196.74927 q 0,8.03879 -2.10938,15.52589 -2.03125,7.40829 -5.78125,13.94966 -3.75,6.46256 -9.0625,11.82175 -5.3125,5.35919 -11.71875,9.22095 -6.40625,3.78296 -13.82812,5.83206 -7.42188,2.12792 -15.39063,2.12792 -7.96875,0 -15.39062,-2.12792 -7.34375,-2.0491 -13.82813,-5.83206 -6.40625,-3.86176 -11.71875,-9.22095 -5.3125,-5.35919 -9.14062,-11.82175 -3.75,-6.54137 -5.85938,-13.94966 -2.03125,-7.4871 -2.03125,-15.52589 0,-8.03878 2.03125,-15.52589 2.10938,-7.4871 5.85938,-13.94965 3.82812,-6.46256 9.14062,-11.82175 5.3125,-5.35919 11.71875,-9.14215 6.48438,-3.78295 13.82813,-5.83206 7.42187,-2.12792 15.39062,-2.12792 7.96875,0 15.39063,2.12792 7.42187,2.04911 13.82812,5.83206 6.40625,3.78296 11.71875,9.14215 5.3125,5.35919 9.0625,11.82175 3.75,6.46255 5.78125,13.94965 2.10938,7.48711 2.10938,15.52589 z m -22.26563,0 q 0,-7.40829 -2.8125,-13.94966 -2.8125,-6.62018 -7.65625,-11.42768 -4.76562,-4.88632 -11.32812,-7.72354 -6.48438,-2.83722 -13.82813,-2.83722 -7.42187,0 -13.90625,2.83722 -6.48437,2.83722 -11.32812,7.72354 -4.84375,4.8075 -7.65625,11.42768 -2.8125,6.54137 -2.8125,13.94966 0,7.4083 2.8125,13.94966 2.8125,6.46255 7.65625,11.34887 4.84375,4.88632 11.32812,7.72354 6.48438,2.83722 13.90625,2.83722 7.34375,0 13.82813,-2.83722 6.5625,-2.83722 11.32812,-7.72354 4.84375,-4.88632 7.65625,-11.34887 2.8125,-6.54136 2.8125,-13.94966 z"
           id="path2991"
           style="fill:#000000;fill-opacity:1;stroke-width:1.00438" /><path
           d="m 418.35937,200.03257 q 0,7.58744 -2.10937,14.65417 -2.03125,6.99235 -5.78125,13.16645 -3.75,6.09971 -9.0625,11.15801 -5.3125,5.05829 -11.71875,8.70324 -6.40625,3.57056 -13.82813,5.50461 -7.42187,2.00845 -15.39062,2.00845 -7.96875,0 -15.39063,-2.00845 -7.34375,-1.93405 -13.82812,-5.50461 -6.40625,-3.64495 -11.71875,-8.70324 -5.3125,-5.0583 -9.14063,-11.15801 -3.75,-6.1741 -5.85937,-13.16645 Q 302.5,207.62001 302.5,200.03257 q 0,-7.58745 2.03125,-14.65419 2.10937,-7.06673 5.85937,-13.16644 3.82813,-6.09971 9.14063,-11.15801 5.3125,-5.05829 11.71875,-8.62885 6.48437,-3.57057 13.82812,-5.50462 7.42188,-2.00845 15.39063,-2.00845 7.96875,0 15.39062,2.00845 7.42188,1.93405 13.82813,5.50462 6.40625,3.57056 11.71875,8.62885 5.3125,5.0583 9.0625,11.15801 3.75,6.09971 5.78125,13.16644 2.10937,7.06674 2.10937,14.65419 z m -22.26562,0 q 0,-6.99235 -2.8125,-13.16646 -2.8125,-6.24848 -7.65625,-10.78606 -4.76563,-4.61198 -11.32813,-7.2899 -6.48437,-2.67792 -13.82812,-2.67792 -7.42188,0 -13.90625,2.67792 -6.48438,2.67792 -11.32813,7.2899 -4.84375,4.53758 -7.65625,10.78606 -2.8125,6.17411 -2.8125,13.16646 0,6.99235 2.8125,13.16644 2.8125,6.09971 7.65625,10.71168 4.84375,4.61198 11.32813,7.2899 6.48437,2.67792 13.90625,2.67792 7.34375,0 13.82812,-2.67792 6.5625,-2.67792 11.32813,-7.2899 4.84375,-4.61197 7.65625,-10.71168 2.8125,-6.17409 2.8125,-13.16644 z"
           id="path2993"
           style="fill:#000000;fill-opacity:1;stroke-width:0.975782" /><path
           d="m 522.65625,222.02776 c 0,4.24687 -0.88542,8.2313 -2.65625,11.95327 -1.77083,3.72197 -4.19271,6.99063 -7.26563,9.80596 -3.02083,2.76762 -6.5625,4.96263 -10.625,6.58503 -4.0625,1.6224 -8.41146,2.4336 -13.04687,2.4336 H 433.04687 V 148.04498 l 56.01563,2.12007 c 4.6321,0.17531 8.98437,0.8112 13.04687,2.43359 4.0625,1.6224 7.60417,3.84127 10.625,6.65662 3.07292,2.76762 5.4948,6.01242 7.26563,9.73439 1.77083,3.72197 2.65625,7.70639 2.65625,11.95325 0,1.90871 -0.28646,3.86513 -0.85938,5.86927 -0.57291,2.00414 -1.3802,3.9367 -2.42187,5.79769 -1.04167,1.86099 -2.29167,3.55496 -3.75,5.08192 -1.45833,1.52697 -3.07292,2.79149 -4.84375,3.79356 1.82291,0.90663 3.46354,2.14729 4.92187,3.72197 1.45833,1.52697 2.70833,3.22094 3.75,5.08192 1.04167,1.86099 1.82292,3.81742 2.34375,5.86927 0.57292,2.00414 0.85938,3.96056 0.85938,5.86926 z m -67.1875,10.23543 h 33.59375 c 1.5625,0 3.02083,-0.26245 4.375,-0.78734 1.35417,-0.52489 2.52604,-1.24066 3.51562,-2.14729 1.04167,-0.95435 1.84896,-2.05186 2.42188,-3.29252 0.57291,-1.24065 0.85937,-2.57675 0.85937,-4.00828 0,-1.43153 -0.28646,-2.76762 -0.85937,-4.00828 -0.57292,-1.24065 -1.38021,-2.3143 -2.42188,-3.22093 -0.98958,-0.95435 -2.16145,-1.69398 -3.51562,-2.21887 -1.35417,-0.52489 -2.8125,-0.78734 -4.375,-0.78734 h -33.59375 z m 0,-41.01328 h 33.59375 c 1.5625,0 3.02083,-0.26245 4.375,-0.78734 1.35417,-0.52489 2.52604,-1.24066 3.51562,-2.14729 1.04167,-0.95435 1.84896,-2.05186 2.42188,-3.29252 0.57291,-1.28837 0.85937,-2.64833 0.85937,-4.07986 0,-1.43153 -0.28646,-2.76762 -0.85937,-4.00828 -0.57292,-1.24065 -1.38021,-2.3143 -2.42188,-3.22093 -0.98958,-0.95435 -2.16145,-1.69398 -3.51562,-2.21887 -1.35417,-0.52489 -2.8125,-0.78734 -4.375,-0.78734 h -33.59375 z"
           id="path2995"
           style="fill:#000000;fill-opacity:1;stroke-width:0.957172"
           sodipodi:nodetypes="sssssccsscsssssccscscsssssscsscccssscsscsscc" /><path
           d="m 533.04687,182.20993 c 0,-4.17199 0.88542,-8.08615 2.65625,-11.7425 1.77083,-3.65635 4.16667,-6.84394 7.1875,-9.56277 3.07292,-2.7657 6.64063,-4.94545 10.70313,-6.53924 4.0625,-1.59379 8.41146,-2.39069 13.04687,-2.39069 l 51.40625,0.90513 v 20.18024 l -51.40625,-0.90513 c -1.56226,-0.0275 -3.02083,0.25782 -4.375,0.77346 -1.35417,0.51564 -2.55208,1.24222 -3.59375,2.17975 -0.98958,0.89065 -1.77083,1.94536 -2.34375,3.16414 -0.57291,1.21879 -0.85937,2.53132 -0.85937,3.93761 0,1.40629 0.28646,2.74226 0.85937,4.00793 0.57292,1.21878 1.35417,2.29693 2.34375,3.23446 1.04167,0.89065 2.23958,1.59379 3.59375,2.10944 1.35417,0.51563 2.8125,0.77345 4.375,0.77345 h 22.42188 c 4.63541,0 8.98437,0.7969 13.04687,2.39069 4.11459,1.54692 7.6823,3.70323 10.70313,6.46893 3.07291,2.71882 5.46875,5.92985 7.1875,9.63308 1.77083,3.65635 2.65625,7.57051 2.65625,11.7425 0,4.17199 -0.88542,8.08617 -2.65625,11.74252 -1.71875,3.65635 -4.11459,6.86737 -7.1875,9.63307 -3.02083,2.71883 -6.58854,4.87514 -10.70313,6.46893 -4.0625,1.59379 -8.41146,2.39069 -13.04687,2.39069 h -49.76563 v -20.18024 h 49.76563 c 1.5625,0 3.02083,-0.25782 4.375,-0.77346 1.35417,-0.51563 2.52604,-1.21878 3.51562,-2.10943 1.04167,-0.93753 1.84896,-2.01568 2.42188,-3.23447 0.57291,-1.21878 0.85937,-2.53132 0.85937,-3.93761 0,-1.40629 -0.28646,-2.71882 -0.85937,-3.9376 -0.57292,-1.21879 -1.38021,-2.2735 -2.42188,-3.16415 -0.98958,-0.93753 -2.16145,-1.66411 -3.51562,-2.17975 -1.35417,-0.51563 -2.8125,-0.77345 -4.375,-0.77345 h -22.42188 c -4.63541,0 -8.98437,-0.7969 -13.04687,-2.3907 -4.0625,-1.59379 -7.63021,-3.7501 -10.70313,-6.46892 -3.02083,-2.76571 -5.41667,-5.97673 -7.1875,-9.63308 -1.77083,-3.70323 -2.65625,-7.64084 -2.65625,-11.81283 z"
           id="path2997"
           style="fill:#000000;fill-opacity:1;stroke-width:0.948696"
           sodipodi:nodetypes="sssssccsssssccssscccscscsccsssssscssssccs" /><path
           d="m 726.95312,223.0742 c 0,4.10247 -0.88542,7.95143 -2.65625,11.54686 -1.77083,3.59543 -4.19271,6.75295 -7.26562,9.47256 -3.02083,2.67353 -6.5625,4.79391 -10.625,6.36114 -4.0625,1.56724 -8.41146,2.35086 -13.04688,2.35086 h -56.01562 v -99.63086 l 56.01562,0.48002 c 4.63525,0.0397 8.98438,0.78362 13.04688,2.35086 4.0625,1.56723 7.60417,3.71066 10.625,6.43029 3.07291,2.67352 5.49479,5.80799 7.26562,9.40342 1.77083,3.59543 2.65625,7.44438 2.65625,11.54685 0,1.84381 -0.28646,3.73372 -0.85937,5.66972 -0.57292,1.936 -1.38021,3.80286 -2.42188,5.60057 -1.04167,1.79771 -2.29167,3.43409 -3.75,4.90914 -1.45833,1.47505 -3.07292,2.69657 -4.84375,3.66457 1.82292,0.87581 3.46355,2.07428 4.92188,3.59543 1.45833,1.47505 2.70833,3.11143 3.75,4.90914 1.04167,1.79772 1.82292,3.68762 2.34375,5.66971 0.57291,1.936 0.85937,3.82591 0.85937,5.66972 z m -67.1875,9.88743 h 33.59375 c 1.5625,0 3.02083,-0.25353 4.375,-0.76058 1.35417,-0.50704 2.52604,-1.19847 3.51563,-2.07428 1.04167,-0.92191 1.84896,-1.9821 2.42187,-3.18057 0.57292,-1.19848 0.85938,-2.48915 0.85938,-3.872 0,-1.38286 -0.28646,-2.67353 -0.85938,-3.872 -0.57291,-1.19848 -1.3802,-2.23562 -2.42187,-3.11143 -0.98959,-0.9219 -2.16146,-1.63638 -3.51563,-2.14343 -1.35417,-0.50705 -2.8125,-0.76057 -4.375,-0.76057 h -33.59375 z m 0,-39.61886 h 33.59375 c 1.5625,0 3.02083,-0.25352 4.375,-0.76056 1.35417,-0.50705 2.52604,-1.19848 3.51563,-2.07429 1.04167,-0.92191 1.84896,-1.9821 2.42187,-3.18057 0.57292,-1.24457 0.85938,-2.55829 0.85938,-3.94115 0,-1.38285 -0.28646,-2.67352 -0.85938,-3.872 -0.57291,-1.19847 -1.3802,-2.23561 -2.42187,-3.11142 -0.98959,-0.92191 -2.16146,-1.63638 -3.51563,-2.14343 -1.35417,-0.50705 -2.8125,-0.76057 -4.375,-0.76057 h -33.59375 z"
           id="path2999"
           style="fill:#000000;fill-opacity:1;stroke-width:0.940759"
           sodipodi:nodetypes="sssssccsscsssssccscscsssssscsscccssscsscsscc" /><path
           d="m 832.26562,212.89907 c 0,5.52516 -1.17187,10.72532 -3.51562,15.60047 -2.34375,4.82871 -5.54688,9.05384 -9.60938,12.67538 -4.0625,3.5751 -8.82812,6.40733 -14.29687,8.49668 -5.41667,2.08935 -11.22396,3.13402 -17.42188,3.13402 -6.19791,0 -12.03125,-1.04467 -17.5,-3.13402 -5.41667,-2.08935 -10.15625,-4.92158 -14.21875,-8.49668 -4.01041,-3.62154 -7.1875,-7.84667 -9.53125,-12.67538 -2.34375,-4.87515 -3.51562,-10.07531 -3.51562,-15.60047 V 153.57478 L 765,153.33477 v 59.5643 c 0,2.73936 0.57292,5.31622 1.71875,7.73058 1.19791,2.41436 2.8125,4.52693 4.84375,6.3377 2.03125,1.81077 4.40104,3.25009 7.10937,4.31798 2.76042,1.02146 5.67709,1.53219 8.75,1.53219 3.07292,0 5.96355,-0.51073 8.67188,-1.53219 2.76041,-1.06789 5.15625,-2.50721 7.1875,-4.31798 2.03125,-1.81077 3.61979,-3.92334 4.76562,-6.3377 1.19792,-2.41436 1.79688,-4.99122 1.79688,-7.73058 v -59.96431 l 22.42187,-0.28285 z"
           id="path3001"
           style="fill:#000000;fill-opacity:1;stroke-width:0.944169"
           sodipodi:nodetypes="scccscccsccscscscscsccs" /><path
           d="m 845.15625,182.0385 c 0,-4.18212 0.88542,-8.10579 2.65625,-11.77102 1.77083,-3.66523 4.16667,-6.86056 7.1875,-9.58599 3.07291,-2.77242 6.64062,-4.95746 10.70312,-6.55512 4.0625,-1.59767 8.41146,-2.39651 13.04688,-2.39651 l 51.40625,-1.41426 v 20.22926 L 878.75,171.95912 c -1.56191,0.043 -3.02083,0.25844 -4.375,0.77533 -1.35417,0.51689 -2.55208,1.24524 -3.59375,2.18504 -0.98959,0.89281 -1.77084,1.95009 -2.34375,3.17184 -0.57292,1.22174 -0.85938,2.53746 -0.85938,3.94717 0,1.4097 0.28646,2.74892 0.85938,4.01765 0.57291,1.22175 1.35416,2.30252 2.34375,3.24232 1.04167,0.89281 2.23958,1.59767 3.59375,2.11456 1.35417,0.51689 2.8125,0.77533 4.375,0.77533 h 22.42187 c 4.63542,0 8.98438,0.79883 13.04688,2.3965 4.11458,1.55068 7.68229,3.71223 10.70312,6.48464 3.07292,2.72543 5.46875,5.94425 7.1875,9.65647 1.77083,3.66523 2.65625,7.58891 2.65625,11.77103 0,4.18211 -0.88542,8.10579 -2.65625,11.77102 -1.71875,3.66523 -4.11458,6.88405 -7.1875,9.65646 -3.02083,2.72543 -6.58854,4.88698 -10.70312,6.48465 -4.0625,1.59766 -8.41146,2.39649 -13.04688,2.39649 h -49.76562 v -20.22924 h 49.76562 c 1.5625,0 3.02083,-0.25845 4.375,-0.77534 1.35417,-0.51689 2.52604,-1.22174 3.51563,-2.11456 1.04167,-0.9398 1.84896,-2.02057 2.42187,-3.24232 0.57292,-1.22174 0.85938,-2.53746 0.85938,-3.94716 0,-1.40971 -0.28646,-2.72543 -0.85938,-3.94718 -0.57291,-1.22175 -1.3802,-2.27902 -2.42187,-3.17183 -0.98959,-0.9398 -2.16146,-1.66815 -3.51563,-2.18505 -1.35417,-0.51689 -2.8125,-0.77533 -4.375,-0.77533 H 878.75 c -4.63542,0 -8.98438,-0.79883 -13.04688,-2.39649 -4.0625,-1.59767 -7.63021,-3.75921 -10.70312,-6.48464 -3.02083,-2.77242 -5.41667,-5.99124 -7.1875,-9.65647 -1.77083,-3.71222 -2.65625,-7.65939 -2.65625,-11.84151 z"
           id="path3003"
           style="fill:#000000;fill-opacity:1;stroke-width:0.949848"
           sodipodi:nodetypes="sssssccsssssccssscccscscsccsssssscssssccs" /><path
           d="m 994.92187,252.80562 h -22.34375 v -83.59423 l -33.67187,1.68005 v -20.91678 l 89.60935,-3.4001 v 20.91678 l -33.59373,1.72005 z"
           id="path3005"
           style="fill:#000000;fill-opacity:1;stroke-width:0.965854"
           sodipodi:nodetypes="ccccccccc" /><path
           d="m 1117.1875,252.80562 h -76.7969 V 145.97884 l 76.7969,-4.00443 v 21.22184 h -54.375 v 22.42187 h 36.7969 V 208.04 h -36.7969 v 22.34375 h 54.375 z"
           id="path3007"
           sodipodi:nodetypes="ccccccccccccc"
           style="fill:#000000;fill-opacity:1" /><path
           d="m 1155.3125,161.20532 v 45.84008 h 22.4219 c 3.0729,0 5.9636,-0.58564 8.6719,-1.75693 2.7083,-1.22454 5.0781,-2.875 7.1093,-4.95137 2.0313,-2.07639 3.6198,-4.49883 4.7657,-7.26734 1.1979,-2.82174 1.7968,-5.80321 1.7968,-8.9444 0,-3.14119 -0.5989,-6.09603 -1.7968,-8.86454 -1.1459,-2.82175 -2.7344,-5.27082 -4.7657,-7.34719 -2.0312,-2.07639 -4.401,-3.70023 -7.1093,-4.87152 -2.7083,-1.22453 -5.599,-1.83679 -8.6719,-1.83679 z m 0,91.6003 h -22.4219 l 0.04,-111.85869 44.8038,-2.66165 c 4.1074,-0.244 8.0729,0.55903 11.875,1.67708 3.8021,1.06481 7.3437,2.60878 10.625,4.63192 3.3333,1.96989 6.3542,4.36572 9.0625,7.18747 2.7604,2.76851 5.1041,5.85646 7.0312,9.26385 1.9792,3.40739 3.4896,7.05437 4.5313,10.94092 1.0937,3.88656 1.6406,7.93284 1.6406,12.13884 0,3.93979 -0.4948,7.77311 -1.4844,11.49995 -0.9375,3.72683 -2.3177,7.26733 -4.1406,10.62149 -1.7708,3.35415 -3.9583,6.4421 -6.5625,9.26385 -2.6041,2.82174 -5.5208,5.2708 -8.75,7.34719 l 12.4219,29.94778 h -23.8281 l -9.7657,-23.07976 -25.0781,0.15972 z"
           id="path3009"
           style="fill:#000000;fill-opacity:1;stroke-width:1.01105"
           sodipodi:nodetypes="ccscscscscsccccscccccsccscccccc" /><path
           d="m 1230.625,167.87062 c 0,-5.01939 0.8854,-9.7286 2.6563,-14.12763 1.7708,-4.39903 4.1666,-8.23407 7.1875,-11.50514 3.0729,-3.32747 6.6406,-5.94997 10.7031,-7.86749 4.0625,-1.91753 8.4114,-2.87629 13.0469,-2.87629 l 51.4062,-4.40014 v 24.27924 l -51.4062,4.40014 c -1.5568,0.13326 -3.0209,0.31019 -4.375,0.93056 -1.3542,0.62037 -2.5521,1.49454 -3.5938,2.6225 -0.9896,1.07155 -1.7708,2.3405 -2.3437,3.80684 -0.5729,1.46634 -0.8594,3.04548 -0.8594,4.73741 0,1.69193 0.2865,3.29927 0.8594,4.82201 0.5729,1.46634 1.3541,2.76349 2.3437,3.89145 1.0417,1.07155 2.2396,1.91752 3.5938,2.53789 1.3541,0.62037 2.8125,0.93056 4.375,0.93056 h 22.4218 c 4.6355,0 8.9844,0.95876 13.0469,2.87629 4.1146,1.86113 7.6823,4.45542 10.7031,7.78289 3.0729,3.27107 5.4688,7.13431 7.1875,11.58974 1.7709,4.39902 2.6563,9.10823 2.6563,14.12763 0,5.0194 -0.8854,9.72861 -2.6563,14.12764 -1.7187,4.39902 -4.1146,8.26226 -7.1875,11.58973 -3.0208,3.27107 -6.5885,5.86536 -10.7031,7.78289 -4.0625,1.91752 -8.4114,2.87628 -13.0469,2.87628 H 1236.875 V 228.5264 h 49.7656 c 1.5625,0 3.0209,-0.31019 4.375,-0.93057 1.3542,-0.62037 2.5261,-1.46634 3.5157,-2.5379 1.0417,-1.12795 1.8489,-2.4251 2.4218,-3.89144 0.5729,-1.46635 0.8594,-3.04548 0.8594,-4.73741 0,-1.69193 -0.2865,-3.27107 -0.8594,-4.73741 -0.5729,-1.46635 -1.3801,-2.7353 -2.4218,-3.80685 -0.9896,-1.12795 -2.1615,-2.00212 -3.5157,-2.6225 -1.3541,-0.62037 -2.8125,-0.93055 -4.375,-0.93055 h -22.4218 c -4.6355,0 -8.9844,-0.95876 -13.0469,-2.87629 -4.0625,-1.91752 -7.6302,-4.51182 -10.7031,-7.78289 -3.0209,-3.32747 -5.4167,-7.19071 -7.1875,-11.58974 -1.7709,-4.45542 -2.6563,-9.19283 -2.6563,-14.21223 z"
           id="path3011"
           style="fill:#000000;fill-opacity:1;stroke-width:1.04059"
           sodipodi:nodetypes="sssssccsssssccssscccscscsccsssssscssssccs" /></g></g><g
       inkscape:groupmode="layer"
       id="layer11"
       inkscape:label="Text 3"
       style="display:inline" /></g><g
     inkscape:groupmode="layer"
     id="g335"
     inkscape:label="Thong"
     style="display:inline"
     transform="matrix(-1,0,0,1,-55.085079,-328.86788)"><path
       style="display:inline;fill:#f5b986;fill-opacity:1;stroke-width:0.264583"
       d="m -182.85374,192.33379 c 0,0 -5.60354,-3.65448 -9.98891,-4.62901 -4.38538,-0.97453 -8.22258,0.42636 -8.22258,0.42636 0,0 -7.32211,1.88519 -9.37983,7.91804 -2.67995,7.85713 2.80177,11.57251 2.80177,11.57251 0,0 5.96898,4.38537 20.28236,3.71539"
       id="path333"
       sodipodi:nodetypes="cscscc"
       inkscape:label="RightThong" /><path
       style="display:inline;fill:#f3b988;fill-opacity:1;stroke-width:0.264583"
       d="m -53.207928,193.02289 c 0,0 5.603533,-3.65448 9.988909,-4.62901 4.385374,-0.97453 8.222577,0.42636 8.222577,0.42636 0,0 7.32211,1.88519 9.379828,7.91804 2.679952,7.85713 -2.801767,11.57251 -2.801767,11.57251 0,0 -5.968982,4.38537 -20.282357,3.71539"
       id="path281"
       sodipodi:nodetypes="cscscc"
       inkscape:label="LeftThong" /><path
       style="display:inline;fill:#fbcd99;fill-opacity:1;stroke-width:0.264583"
       d="m -53.745629,191.78606 c 0,0 6.58946,-2.75734 9.74303,-3.39502 3.74184,-0.75663 5.92866,-0.58548 11.27437,1.06932 5.70679,1.76657 8.95824,7.9246 7.58005,11.37008 -1.37819,3.44547 -3.18706,4.56525 -24.89356,7.14936"
       id="path5625"
       sodipodi:nodetypes="csssc"
       inkscape:label="Left_Light" /><path
       style="display:inline;fill:#fbcd99;fill-opacity:1;stroke-width:0.264583"
       d="m -182.34697,190.94291 c 0,0 -6.58946,-2.75734 -9.74303,-3.39502 -3.74184,-0.75663 -5.92866,-0.58548 -11.27437,1.06932 -5.70679,1.76657 -8.95824,7.9246 -7.58005,11.37008 1.37819,3.44547 3.18706,4.56525 24.89356,7.14936"
       id="path5623"
       sodipodi:nodetypes="csssc"
       inkscape:label="Right_Light" /></g><g
     inkscape:groupmode="layer"
     id="layer2"
     inkscape:label="Warstwa 2 kopia 3"
     style="display:inline"
     transform="translate(-107.27619,-328.86788)"><g
       id="g9693"
       inkscape:label="Hoodie"
       style="display:inline"
       transform="translate(65.138861,-3.8316977)"><path
         style="display:inline;fill:#ae506e;fill-opacity:1;stroke-width:0.264583"
         d="m 71.445061,156.4726 c 0,0 1.870636,-10.19003 2.13178,-15.34881 0.445775,-8.80607 -5.484361,-18.40651 -0.97453,-26.43406 3.428609,-6.10297 2.913304,-11.42888 5.604239,-16.028745 4.081966,-6.977685 9.509787,-12.870155 15.713554,-14.668879 5.96812,-0.783693 19.212306,-0.337938 27.908776,5.706767 6.18013,4.295662 7.64682,9.733241 11.72534,17.568917 1.77944,3.41866 4.16379,5.23392 5.07235,9.49281 2.64092,12.37931 -1.96816,15.55349 -3.22813,21.19598 -1.92696,8.62941 3.16721,22.71867 3.16721,22.71867 0,0 -33.98665,9.74528 -34.23028,9.50165 -0.24363,-0.24363 -32.890309,-13.7043 -32.890309,-13.7043 z"
         id="path348"
         sodipodi:nodetypes="cssscsssscsc"
         sodipodi:insensitive="true" /><path
         style="display:inline;fill:#5a2a38;fill-opacity:1;stroke-width:0.264583"
         d="m 75.221356,156.4726 c 0.121816,-0.60908 0.356508,-9.38245 0,-14.37429 -0.35503,-4.97113 -0.601896,-7.9029 -2.07285,-14.83527 -0.916525,-4.31943 -2.386149,-6.99805 0.793781,-12.02514 5.542628,-20.282364 12.973402,-26.555883 21.805057,-29.479463 11.237146,1.068169 22.186256,1.140613 30.407256,9.611505 3.49822,3.604555 4.86744,10.684838 8.69566,16.578928 1.82451,2.8091 6.85569,9.61431 -0.8527,25.82499 -3.86157,16.58726 3.65448,25.09408 3.65448,25.09408 l -31.30671,9.01438 -31.123974,-15.10518 z"
         id="path2365"
         sodipodi:nodetypes="cssccssccccc" /><path
         style="display:inline;fill:#381a23;fill-opacity:1;stroke-width:0.264583"
         d="m 89.565931,165.00248 c 0,0 2.634292,-8.8608 -4.789622,-25.14552 -7.423912,-16.28471 32.187171,-4.57215 32.187171,-4.57215 l 9.30615,3.36976 c 0,0 3.86742,-3.19035 -0.33369,3.43449 -9.58465,15.1143 2.218,27.03067 2.218,27.03067 z"
         id="path18379"
         sodipodi:nodetypes="csccscc" /></g><g
       id="g8161"
       inkscape:label="Head"
       style="display:inline"
       transform="translate(65.138861,-3.8316977)"><path
         style="display:inline;fill:#362c30;fill-opacity:1;stroke-width:0.264583"
         d="m 93.113981,165.03828 c 0,0 4.010126,-7.87226 4.909801,-12.1453 -30.562364,-15.0844 -27.668387,-65.181784 6.029588,-64.688803 39.43224,0.57687 35.06926,58.594103 9.1305,64.258123 2.5472,9.75892 5.94345,12.23144 5.94345,12.23144 l -13.60963,6.02958 z"
         id="path5143"
         sodipodi:nodetypes="ccscccc"
         inkscape:label="path5143" /><path
         style="display:inline;fill:#231d20;fill-opacity:1;stroke-width:0.264583"
         d="m 98.031394,152.90949 c 5.757016,1.22687 10.616256,0.51461 15.150856,-0.44159 -14.408466,12.14224 -19.72845,11.74831 -19.72845,11.74831 0,0 3.56701,-7.37297 4.577594,-11.30672 z"
         id="path8163"
         sodipodi:nodetypes="cccc" /><path
         style="display:inline;fill:#3e373a;fill-opacity:1;stroke-width:0.264583"
         d="m 77.218452,112.4409 c 0,0 8.346166,-10.62471 19.577076,-15.883133 8.722632,-4.084026 22.588262,-4.26817 22.588262,-4.26817 0,0 -3.07605,-2.939171 -12.38058,-4.18525 C 94.545081,86.435932 78.721364,94.081704 77.218452,112.4409 Z"
         id="path17641"
         sodipodi:nodetypes="cscsc" /><g
         id="g17528"
         inkscape:label="Yeyes"
         style="display:inline"><path
           style="fill:#ffffff;fill-opacity:1;stroke-width:0.264583"
           d="m 99.004269,112.03119 c -1.729454,-0.12965 -5.04363,1.1696 -6.959478,7.93494 -1.915851,6.76534 -0.563009,10.07211 0.155432,11.20964 0.718445,1.13754 1.855978,2.09546 2.993515,2.03559 1.137536,-0.0599 3.822406,-2.27785 4.900332,-4.74189 0.82065,-1.8759 2.89261,-7.11098 1.67575,-13.30987 -0.25016,-1.27436 -1.45957,-3.0305 -2.765551,-3.12841 z"
           id="path17522"
           sodipodi:nodetypes="sssssss" /><path
           style="fill:#ffffff;fill-opacity:1;stroke-width:0.264583"
           d="m 114.33726,103.27623 c 0,0 -2.14036,4.72975 -3.8766,8.38183 -1.73624,3.65209 -2.2152,8.08249 -1.79611,10.83652 0.41909,2.75404 0.35922,7.18444 3.71196,8.56145 3.35273,1.37702 6.52585,-3.17312 6.76534,-7.60352 0.23948,-4.4304 -1.13754,-7.72327 -1.79611,-9.10028 -0.65857,-1.37702 -2.769,-5.61284 -3.05339,-8.02262 -0.28077,-2.37905 0.0449,-3.05338 0.0449,-3.05338 z"
           id="path17524"
           sodipodi:nodetypes="csssssscc" /></g></g><g
       id="g8156"
       style="display:inline;fill:#ffcc00"
       inkscape:label="HeadphonesColor1"
       transform="translate(65.138861,-3.8316977)"><path
         style="display:inline;fill:#ffcc00;fill-opacity:1;stroke-width:0.264583"
         d="m 126.87132,113.16703 c 0,0 2.98449,-0.60908 3.34994,-1.46179 0.36545,-0.85272 1.21816,1.40088 4.01993,2.43632 2.80176,1.03543 3.77629,7.36986 3.77629,7.36986 0,0 -2.25359,11.93796 -5.11627,15.34881 -2.86267,3.41085 -3.8981,3.0454 -9.1971,0.18272 -0.80962,-4.74435 0.60908,-10.41526 1.33998,-14.80064 1.03543,-4.50719 1.76632,-9.13619 1.82723,-9.07528 z"
         id="path5475"
         sodipodi:nodetypes="csscsccc"
         inkscape:label="path5475" /><path
         style="display:inline;fill:#ffcc00;fill-opacity:1;stroke-width:0.264583"
         d="m 73.73318,116.71549 c -0.600139,1.19347 -2.325698,4.9098 3.962297,21.0174 7.580046,3.9623 11.197796,1.20591 9.561193,-8.26915 -1.060982,-6.14252 -3.431384,-17.58716 -4.920251,-17.82077 -2.11701,-0.33218 -7.107635,2.09828 -8.603239,5.07252 z"
         id="path8158"
         sodipodi:nodetypes="scsss" /></g><g
       id="g13936"
       inkscape:label="HF2"
       style="display:inline;fill:#ffdd55"
       transform="translate(65.138861,-3.8316977)"><path
         style="fill:#ffdd55;fill-opacity:1;stroke-width:0.264583"
         d="m 73.492999,122.77057 c 0,0 1.992974,1.25335 2.709421,2.15906 2.032558,2.56951 4.191132,8.89029 4.191132,8.89029 0,0 0.508016,1.39704 1.693389,1.98973 1.18537,0.59268 2.201402,-0.0847 2.201402,-0.0847 0,0 1.862725,-1.65106 1.778056,-5.54585 -0.08467,-3.89479 -1.989728,-13.54709 -1.989728,-13.54709 0,0 -0.218939,-2.71969 -1.742986,-3.39705 -1.524048,-0.67735 -6.466053,1.66558 -6.984341,1.91658 -0.581598,0.28166 -1.602334,0.76074 -1.856345,2.53883 -0.254008,1.77806 -0.673542,3.67219 0,5.08017 0.673542,1.40798 0,3e-5 0,3e-5 z"
         id="path9750"
         sodipodi:nodetypes="cscscscssszc" /><path
         style="display:inline;fill:#ffdd55;fill-opacity:1;stroke-width:0.264583"
         d="m 127.76606,114.00729 c 0,0 1.53202,-1.48056 3.3269,-0.88265 2.15782,0.71881 4.81163,3.39581 5.10797,4.66585 0.29634,1.27003 0.96343,5.02241 0.96343,5.02241 0,0 -5.63052,4.40281 -7.02756,11.55737 -1.39704,7.15456 -5.03637,0.3397 -6.18086,-1.43938 0.0511,-6.90817 3.81012,-18.9236 3.81012,-18.9236 z"
         id="path13931"
         sodipodi:nodetypes="csscscc" /></g><g
       id="g17517"
       style="display:inline;fill:#ffeeaa"
       inkscape:label="HF3"
       transform="translate(65.138861,-3.8316977)"><path
         style="fill:#ffeeaa;fill-opacity:1;stroke-width:0.264583"
         d="m 78.190578,114.71145 c 0,0 -3.412603,1.13753 -3.412603,2.2152 0,1.07766 -1.137537,4.07118 0.359222,5.26858 1.496756,1.19741 4.4304,5.02911 5.328454,8.20223 0.898054,3.17312 1.197404,3.89157 1.197404,3.89157 0,0 0.838184,-14.66822 0.179612,-17.1229 -0.658574,-2.45468 -3.652089,-2.45468 -3.652089,-2.45468 z"
         id="path13938" /><path
         style="fill:#ffeeaa;fill-opacity:1;stroke-width:0.264583"
         d="m 126.74537,136.32462 c -0.0599,-0.4191 0.11974,-7.60353 0.17961,-9.04041 0.0599,-1.43689 0.11974,-4.13105 1.37702,-7.36405 1.25728,-3.23299 2.09546,-7.2443 2.09546,-7.2443 0,0 -0.83818,0.71844 0.83818,3.29286 1.67637,2.57443 2.33494,2.6343 2.33494,2.6343 0,0 -1.73623,-1.49676 -2.51455,0.23948 -0.77831,1.73624 -2.39481,4.78962 -2.09546,6.6456 0.29935,1.85598 -2.2152,10.83652 -2.2152,10.83652 z"
         id="path17513" /></g></g><g
     inkscape:groupmode="layer"
     id="layer4"
     inkscape:label="Warstwa 2 kopia 2"
     style="display:inline"
     transform="translate(-107.27619,-328.86788)"><path
       style="display:inline;fill:#382c30;fill-opacity:1;stroke-width:0.264583"
       d="m 104.32727,221.62945 c -8.138366,-0.61612 -3.10929,-10.53157 -2.1987,-15.33193 3.37828,-13.57217 5.84187,-27.43649 10.47702,-40.65192 6.96658,-13.55616 25.84728,-17.5169 38.65713,-10.14921 7.69186,3.8062 16.3326,7.61537 25.06056,5.16348 11.68792,-2.47241 22.38099,-10.51946 34.82768,-8.45953 10.73777,1.07931 17.33539,11.24843 19.7337,20.89234 3.40995,15.06362 9.19879,32.36423 10.70462,45.0852 0.8651,7.30822 -10.90862,3.63275 -16.17294,5.37816 -10.91906,2.03092 -22.13375,2.79594 -33.18477,4.18467 -6.97569,1.17959 -9.18706,-8.54006 -14.14185,-12.14045 -6.03358,-4.97776 -14.73982,-0.69923 -18.5071,5.06355 -5.68166,8.55989 -16.88573,10.89762 -26.50078,9.65679 -10.05217,-0.94585 -19.63729,-4.51973 -28.75457,-8.69115 z"
       id="path5680"
       sodipodi:nodetypes="csssccsssscscc" /><g
       inkscape:groupmode="layer"
       id="layer5"
       inkscape:label="Lightning"
       style="display:inline"><path
         style="display:inline;fill:#422b30;fill-opacity:1;stroke-width:0.264583"
         d="m 142.40365,210.73529 c 10.24919,-3.68499 17.67835,-13.86901 17.77013,-24.80655 0.8812,-7.68145 -0.67031,-16.01289 -6.34122,-21.63785 -9.49964,-9.54937 -25.85318,-10.06179 -36.59284,-2.33622 -1.9407,1.21777 -5.99642,4.7982 -2.73035,0.54845 5.65732,-7.29903 13.86421,-11.57484 24.21102,-11.0643 11.27934,1.14316 19.81563,9.08401 31.07692,9.43131 7.06001,0.0576 13.6308,-3.22802 19.8814,-5.82901 6.28037,-2.24879 16.24829,-4.23428 23.13963,-3.04903 9.65453,1.66048 14.61258,9.81315 17.72781,19.34962 5.02549,15.38429 7.33463,31.20032 10.59248,47.03922 0.18202,7.02805 -7.62018,2.89421 -11.63837,2.72305 -13.65854,-2.17814 -27.35332,-4.1641 -40.92724,-6.83707 -2.69281,-6.93506 -11.14525,-8.29875 -17.70073,-7.84632 -9.36024,-0.13053 -16.78674,6.50656 -25.70972,8.20964 -0.91964,-1.29831 -1.83928,-2.59663 -2.75892,-3.89494 z"
         id="path8798"
         sodipodi:nodetypes="cssssccssssssssc" /></g><g
       inkscape:groupmode="layer"
       id="layer6"
       inkscape:label="Buttons"
       style="display:inline"><path
         style="display:inline;fill:#ffcc00;fill-opacity:1;stroke-width:0.264583"
         d="m 131.22402,173.95869 c -0.0609,-0.54817 0.0879,0.0209 0,-9.68437 -0.0184,-2.03227 9.21916,-1.76645 9.1971,-0.12182 -0.13187,9.83266 -0.12181,9.74528 -0.12181,9.74528 0,0 -0.0188,0.28885 8.89256,-0.0609 1.91014,-0.075 2.02089,8.80638 -0.0609,8.83166 -8.88947,0.10795 -8.95347,0.18272 -8.95347,0.18272 0,0 -0.0503,-0.0285 0,8.64894 0.0114,1.96934 -9.16085,1.87799 -9.1971,0 -0.16314,-8.45019 0,-8.46621 0,-8.46621 0,0 0.27763,-0.0338 -8.76062,0.002 -1.76963,0.007 -2.05515,-9.04187 0.17259,-9.04653 8.80862,-0.0184 8.83166,-0.0305 8.83166,-0.0305 z"
         id="path11606"
         sodipodi:nodetypes="csscsscsscsscc" /><circle
         style="fill:#ffcc00;fill-opacity:1;stroke-width:0.264583"
         id="path12613"
         cx="204.20686"
         cy="170.25096"
         r="4.8236661" /><circle
         style="fill:#ffcc00;fill-opacity:1;stroke-width:0.264583"
         id="circle12615"
         cx="214.06953"
         cy="179.72601"
         r="4.8236661" /><circle
         style="fill:#ffcc00;fill-opacity:1;stroke-width:0.264583"
         id="circle12617"
         cx="204.293"
         cy="189.07187"
         r="4.8236661" /><circle
         style="fill:#ffd42a;fill-opacity:1;stroke-width:0.264583"
         id="circle12619"
         cx="193.9135"
         cy="179.85522"
         r="4.8236661" /></g><g
       inkscape:groupmode="layer"
       id="layer7"
       inkscape:label="Buttons 1"
       style="display:inline" /></g><g
     inkscape:groupmode="layer"
     id="layer3"
     inkscape:label="Warstwa 2 kopia 1"
     style="display:inline"
     transform="translate(-107.27619,-328.86788)"><path
       style="display:inline;fill:#f5b986;fill-opacity:1;stroke-width:0.264583"
       d="m 197.87581,247.94643 c 0,0 13.49335,12.95533 27.04699,-3.87616 13.89813,-0.44058 20.66288,-11.66615 16.36601,-21.96491 0,0 -5.73882,-14.33813 -9.81961,-20.84512 -3.83802,-6.11988 -9.8812,-10.5081 -18.26102,-2.41184 -0.43069,-3.87615 -13.60963,-8.26914 -15.59078,5.42663 -4.47912,-2.23956 -9.81961,-1.29206 -12.31758,4.56525 -1.98114,3.9623 -1.98114,12.23144 -1.98114,12.23144 0,0 -4.47912,0.0861 -7.40778,8.95824 -2.92865,8.8721 3.10093,13.60963 3.10093,13.60963 0,0 5.5989,6.28799 18.86398,4.30684 z"
       id="path4107"
       inkscape:label="RightHand"
       sodipodi:nodetypes="cccsccccscc" /><path
       style="display:inline;fill:#f5b986;fill-opacity:1;stroke-width:0.264583"
       d="m 143.91703,248.03257 c 0,0 -13.49335,12.95533 -27.04699,-3.87616 -13.89813,-0.44058 -20.662878,-11.66615 -16.36601,-21.96491 0,0 5.73882,-14.33813 9.81961,-20.84512 3.83802,-6.11988 9.8812,-10.5081 18.26102,-2.41184 0.43069,-3.87615 13.60963,-8.26914 15.59078,5.42663 4.47912,-2.23956 9.81961,-1.29206 12.31758,4.56525 1.98114,3.9623 1.98114,12.23144 1.98114,12.23144 0,0 4.47912,0.0861 7.40778,8.95824 2.92865,8.8721 -3.10093,13.60963 -3.10093,13.60963 0,0 -5.5989,6.28799 -18.86398,4.30684 z"
       id="path4163"
       inkscape:label="LeftHand"
       sodipodi:nodetypes="cccsccccscc" /><path
       style="fill:#fbcd99;fill-opacity:1;stroke-width:0.264583"
       d="m 205.39125,245.36232 10.42256,0.38762 c 0,0 -0.78294,2.76997 -3.55314,2.98128 -2.22975,0.17007 -3.74922,0.23816 -5.33825,-1.2035 -0.99981,-0.90709 -1.53117,-2.1654 -1.53117,-2.1654 z"
       id="path5627"
       sodipodi:nodetypes="ccssc" /><path
       style="fill:#fbcd99;fill-opacity:1;stroke-width:0.264583"
       d="m 125.69309,247.25734 c 0,0 6.288,-3.76849 11.56388,0.71062 -4.32838,2.23956 -8.8075,1.91655 -11.56388,-0.71062 z"
       id="path5629"
       sodipodi:nodetypes="ccc" /><path
       style="fill:#fbcd99;fill-opacity:1;stroke-width:0.264583"
       d="m 225.82618,233.34313 c -0.19749,-0.0319 -2.3678,0.51771 -4.19504,-3.56312 -1.82724,-4.08083 -8.1496,-31.23486 -8.1496,-31.23486 0,0 7.12372,-7.83239 13.45815,-2.53339 6.33443,5.29899 10.49707,28.34744 10.37526,29.99195 -0.12182,1.64452 -1.89902,5.14572 -5.78626,6.15171 -3.03018,0.78419 -3.25697,0.9719 -5.70251,1.18771 z"
       id="path5631"
       sodipodi:nodetypes="cccsssc" /><path
       style="fill:#fbcd99;fill-opacity:1;stroke-width:0.264583"
       d="m 197.59907,204.26915 c 0,0 2.83222,2.77131 3.25858,10.3239 0.42636,7.55259 -0.66999,18.88147 0.12181,20.70871 0.79181,1.82724 1.4618,2.86267 3.7763,3.34994 2.3145,0.48726 8.77075,-0.0609 10.04982,-0.48727 1.27906,-0.42635 2.80176,-2.00996 2.92358,-3.89811 0.12182,-1.88814 -4.68992,-35.08299 -4.93355,-35.57026 -0.10433,-0.20864 -1.0601,-2.564 -3.72629,-3.37478 -1.88155,-0.57218 -5.17217,-0.62875 -7.41981,0.86978 -1.21426,0.80956 -2.39877,2.18981 -3.10972,3.98742 -0.4632,1.17117 -0.77623,2.47338 -0.94072,4.09067 z"
       id="path5633"
       sodipodi:nodetypes="csssssssssc" /><path
       style="fill:#fbcd99;fill-opacity:1;stroke-width:0.264583"
       d="m 184.15305,227.74044 c 0,0 -0.30454,6.51715 -0.18272,7.24804 0.12181,0.7309 0.24363,1.15726 1.21816,1.58361 0.97452,0.42636 3.28903,2.19269 7.55259,1.70543 4.26356,-0.48727 4.50719,-1.27907 4.50719,-1.76633 0,-0.48727 1.94905,-21.56143 0.48726,-29.78401 -0.41823,-2.35256 -0.96852,-3.12507 -2.14982,-3.59436 -2.94751,-1.17095 -5.51998,-0.30687 -7.35183,1.09714 -1.16024,0.88926 -2.07087,2.13177 -2.19268,4.44628 -0.12182,2.3145 -1.88815,19.0642 -1.88815,19.0642 z"
       id="path5635"
       sodipodi:nodetypes="cssssssssc" /><path
       style="fill:#fbcd99;fill-opacity:1;stroke-width:0.264583"
       d="m 182.26491,221.28419 c 0,0 -3.61074,1.25477 -5.31745,5.17706 -0.97664,2.24447 -2.64576,6.1248 -0.94422,8.56843 1.47671,2.12073 3.03615,1.86636 4.61714,2.45603 2.86268,-6.27353 1.64453,-16.20152 1.64453,-16.20152 z"
       id="path5637"
       sodipodi:nodetypes="csscc" /><path
       style="fill:#fbcd99;fill-opacity:1;stroke-width:0.264583"
       d="m 159.15728,221.00712 c 0,0 0.60295,10.44409 -0.10768,13.07127 -0.71062,2.62718 1.65814,3.01479 2.47644,2.84252 0.8183,-0.17228 3.3378,-1.72274 3.98383,-3.03633 0.64603,-1.31359 0.64603,-3.16553 0.40915,-4.93133 -0.23688,-1.76581 -2.26109,-6.63254 -6.76174,-7.94613 z"
       id="path5639" /><path
       style="fill:#fbcd99;fill-opacity:1;stroke-width:0.264583"
       d="m 144.60014,203.54286 c 0,0 1.55047,22.56787 0.34455,29.63109 -1.20592,7.06323 8.74289,4.56526 8.74289,4.56526 0,0 2.49797,-0.55989 3.05786,-3.10093 0.55989,-2.54104 -0.9475,-26.70244 -2.06728,-28.89893 -1.11978,-2.19649 -6.37413,-3.70388 -8.39835,-2.75638 -2.02422,0.94751 -1.67967,0.55989 -1.67967,0.55989 z"
       id="path5641" /><path
       style="fill:#fbcd99;fill-opacity:1;stroke-width:0.264583"
       d="m 143.00661,232.31258 c 0,0 2.41183,-18.86398 0,-32.64588 -0.74356,-4.24892 -4.87647,-4.88401 -7.61235,-5.07539 -4.66151,-0.32608 -7.63285,3.63764 -7.88563,4.52238 -0.36544,1.27906 0.30454,7.6744 -0.42635,13.88701 -0.7309,6.21262 -2.80177,15.77517 -2.67996,17.5415 0.12182,1.76634 0.43433,5.15271 2.2536,6.51716 1.64451,1.23338 2.98449,1.46179 4.08083,1.64451 1.09635,0.18273 5.97885,1.24114 8.5728,-0.88317 0.99622,-0.81584 1.24862,-3.03017 1.3552,-5.08581 0.10485,-2.02196 0.54818,-26.37316 0.54818,-26.37316 0,0 2.30829,14.01694 1.79368,25.95085 z"
       id="path5643"
       sodipodi:nodetypes="cssssssssscc" /><path
       style="fill:#fbcd99;fill-opacity:1;stroke-width:0.264583"
       d="m 112.26641,198.6112 c 0,0 -1.93383,19.14033 -4.97923,23.83024 -3.0454,4.68992 -2.37541,5.23809 -2.37541,5.23809 0,0 3.59357,7.06532 13.09522,4.38537 9.50164,-2.67995 6.80865,-36.07174 6.80865,-36.07174 0,0 -2.73712,-1.94958 -6.09684,-1.55665 -2.10572,0.24627 -4.65996,1.87391 -6.45239,4.17469 z"
       id="path5645"
       sodipodi:nodetypes="cscscsc" /></g></svg>
